<?xml version="1.0" encoding="UTF-8"?><svg id="a" xmlns="http://www.w3.org/2000/svg" viewBox="0 0 398.1 480.13"><path d="M301.44,152.52c-.69-.36-1.36-.61-2.01-.78,3.26-39.3,7.53-85,7.53-85-8.29-23.96-29.49-39.59-29.49-39.59l-15.63,5.11-8.33-18.66S232.31-.99,174.25,.05c-58.06,1.04-92.16,52.1-88.47,73.98,2.14,12.68,6.74,49.82,10.24,78.85-10.95,6.15-12.61,19.25-5.38,32.81,7.11,13.33,.59,31.33,21.61,33.84,.31,5.01,.65,9.45,1.03,13.01,2.96,28.26,45.34,59.59,51.26,68.81,5.91,9.22,24.15,7.37,24.15,7.37h20.7s18.24,1.84,24.15-7.37c5.91-9.22,48.3-40.55,51.26-68.81,.37-3.56,.71-8,1.03-13.01,21.02-2.51,14.5-20.5,21.61-33.84,7.37-13.82,5.53-27.19-5.99-33.18Z"/><g><path d="M247.44,294.43c-5.06,4.87-9.43,9.08-10.81,11.22-5.15,8.02-16.93,9.22-23.5,9.22-1.96,0-3.4-.11-3.92-.15h-20.37c-.52,.04-1.96,.15-3.92,.15-6.57,0-18.35-1.2-23.5-9.22-1.37-2.14-5.74-6.34-10.81-11.22-3.52-3.39-7.46-7.19-11.46-11.28-2.1,15.31-5.34,33.23-10,45.33l69.87,29.13,69.87-29.13c-4.66-12.1-7.9-30.02-10-45.33-4,4.09-7.94,7.89-11.46,11.28Z"/><path d="M194.76,361.82l-67.81-28.28c-.09,.17-.17,.36-.26,.52,0,0-1.9,1.37-5.1,3.56l47.94,53.67,25.23-29.48Z"/><path d="M398.1,399.04c-.73,.78-1.51,1.51-2.29,2.24-14.96,14.28-31.49,26.96-49.24,37.71-17.8,10.8-36.84,19.68-56.88,26.36-.78,.27-1.6,.55-2.38,.78l25.03-42.88-26.45-34.28,33.96-25.81c6.36,3.07,12.86,5.95,19.27,8.24,32.26,11.49,49.29,14.28,58.99,27.64Z"/><path d="M276.48,337.63c-3.2-2.19-5.1-3.56-5.1-3.56-.09-.17-.17-.35-.26-.52l-67.81,28.28,25.23,29.48,47.94-53.67Z"/><path d="M159.21,477.34c-.82-.09-1.65-.18-2.47-.32-11.21-1.69-22.24-4.03-33-7-1.74-.46-3.43-.96-5.17-1.46l-26.18-44.89,27.6-35.74-36.24-27.55c9.61-4.94,18.58-10.3,25.81-14.83l49.65,131.8Z"/><path d="M85.72,423.25l25.03,42.88c-.78-.18-1.56-.46-2.33-.73-40.09-13.45-76.2-35.51-106.13-64.11h-.05c-.78-.73-1.51-1.46-2.24-2.2v-.05c9.66-13.36,26.73-16.15,58.94-27.64,6.41-2.29,12.95-5.17,19.31-8.24l33.96,25.81-26.5,34.28Z"/><path d="M278.11,387.92l27.6,35.74-26.22,44.89c-1.69,.5-3.39,1.01-5.08,1.46-8.7,2.33-17.53,4.3-26.5,5.86-2.15,.41-4.35,.78-6.54,1.05-.82,.14-1.65,.27-2.47,.37l49.65-131.75c7.23,4.53,16.2,9.89,25.76,14.83l-36.2,27.55Z"/><path d="M283.78,342.48l-51.07,135.64h-.14c-1.14,.14-2.29,.27-3.43,.37-9.93,1.1-19.95,1.65-30.11,1.65s-20-.5-29.79-1.56h-.27c-1.19-.14-2.38-.27-3.52-.41l-51.12-135.69c.92-.59,1.79-1.19,2.65-1.74l52.63,58.94,29.43-34.37,29.43,34.37,52.67-58.94c.82,.55,1.69,1.14,2.65,1.74Z"/></g></svg>